<svg width="48" height="48" xmlns="http://www.w3.org/2000/svg">
 <title/>

 <desc/>
 <g>
  <title>background</title>
  <rect fill="none" id="canvas_background" height="402" width="582" y="-1" x="-1"/>
 </g>
 <g>
  <title>Layer 1</title>
  <path id="info" fill="#fcfcfc" d="m17.833,21.1235c0,0.411 0.113,1.312 0.198,1.928l1.719,-2.131l1.34,-1.554c0.634,-0.691 1.366,-1.178 1.739,-1.047c0.376,0.131 0.58,0.572 0.458,0.983l-5.065,16.774c-0.527,1.743 0.36,3.609 1.983,4.167c0.374,0.127 0.752,0.175 1.123,0.151l0.102,0.006c3.874,0 6.528,-2.85 8.828,-6.303c0,-0.411 -0.112,-1.31 -0.196,-1.928l-1.721,2.13l-1.339,1.554c-0.633,0.694 -1.422,1.179 -1.796,1.048c-0.347,-0.123 -0.549,-0.507 -0.48,-0.89l5.1,-16.854c0.527,-1.743 -0.36,-3.608 -1.983,-4.166c-0.376,-0.132 -1.163,-0.172 -1.181,-0.172c-3.875,0 -6.528,2.851 -8.829,6.304m7.986,-12.234c0,2.077 1.57,3.487 3.507,3.487c1.937,0 3.507,-1.41 3.507,-3.487c0,-2.079 -1.57,-3.488 -3.507,-3.488c-1.937,0 -3.507,1.409 -3.507,3.488"/>
 </g>
</svg>