<svg xmlns="http://www.w3.org/2000/svg" width="32.1" height="55.027" viewBox="0 0 32.1 55.027"><defs><style>.a{fill:#ffcb00;}.b{fill:#e64c3c;}.c{fill:#ffe065;}</style></defs><g transform="translate(-97.103 3.312)"><path class="a" d="M129.2,60.187a16.05,16.05,0,1,0-16.05,16.05,16.05,16.05,0,0,0,16.05-16.05" transform="translate(0 -39.767)"/><g transform="translate(103.345)"><path class="b" d="M168.705,4.458a15.964,15.964,0,0,1,9.808,3.365V-3.312H158.9V7.823a15.964,15.964,0,0,1,9.808-3.365" transform="translate(-158.897)"/><path class="b" d="M168.705,331.981a15.964,15.964,0,0,1-9.808-3.365v18.523l9.808-9.808,9.808,9.808V328.616a15.963,15.963,0,0,1-9.808,3.365" transform="translate(-158.897 -295.423)"/></g><path class="c" d="M118.411,54.791a10.654,10.654,0,1,0-10.654,10.654,10.654,10.654,0,0,0,10.654-10.654" transform="translate(5.098 -34.669)"/></g></svg>