<svg xmlns="http://www.w3.org/2000/svg" width="59.27" height="83.321" viewBox="0 0 59.27 83.321"><defs><style>.a{fill:#fbfbfb;}</style></defs><g transform="translate(0)"><path class="a" d="M191.968,294.439l5.663-5.663,5.663,5.663,3.644-3.644-5.663-5.663,5.663-5.663-3.644-3.644-5.663,5.663-5.663-5.663-3.644,3.644,5.663,5.663-5.663,5.663Z" transform="translate(-167.996 -228.439)"/><path class="a" d="M117.244,30.065V17.609a17.609,17.609,0,0,0-35.218,0V30.065H70V83.322h59.27V30.065ZM87.18,17.609a12.455,12.455,0,0,1,24.911,0V30.065H87.18Zm36.936,60.558H75.154V35.218h48.962Z" transform="translate(-70)"/></g></svg>