<svg xmlns="http://www.w3.org/2000/svg" width="41.018" height="41.018" viewBox="0 0 41.018 41.018"><defs><style>.a{fill:#c4c4c4;}</style></defs><g transform="translate(0)"><path class="a" d="M20.509,0A20.509,20.509,0,1,0,41.018,20.509,20.569,20.569,0,0,0,20.509,0Zm0,6.153a6.043,6.043,0,0,1,6.153,6.153,6.043,6.043,0,0,1-6.153,6.153,6.043,6.043,0,0,1-6.153-6.153A6.043,6.043,0,0,1,20.509,6.153Zm0,29.122A14.962,14.962,0,0,1,8.2,28.712c0-4.1,8.2-6.358,12.305-6.358s12.305,2.256,12.305,6.358A14.962,14.962,0,0,1,20.509,35.275Z"/></g></svg>