<svg xmlns="http://www.w3.org/2000/svg" width="40.548" height="40.548" viewBox="0 0 40.548 40.548"><defs><style>.a{fill:#c4c4c4;}</style></defs><g transform="translate(0 0)"><path class="a" d="M20.273,0A20.274,20.274,0,1,0,40.548,20.273,20.274,20.274,0,0,0,20.273,0Zm4.22,31.421q-1.565.618-2.5.941a6.588,6.588,0,0,1-2.166.324,4.317,4.317,0,0,1-2.947-.925,2.985,2.985,0,0,1-1.049-2.346,8.522,8.522,0,0,1,.077-1.131c.053-.384.137-.817.252-1.3l1.306-4.613c.115-.443.215-.863.293-1.255a5.563,5.563,0,0,0,.117-1.086,1.673,1.673,0,0,0-.364-1.231,2.067,2.067,0,0,0-1.4-.345,3.662,3.662,0,0,0-1.038.154c-.352.108-.657.206-.908.3l.345-1.421q1.282-.523,2.454-.894a7.251,7.251,0,0,1,2.214-.374,4.236,4.236,0,0,1,2.9.91,3.022,3.022,0,0,1,1.019,2.362q0,.3-.07,1.059a7.086,7.086,0,0,1-.261,1.392l-1.3,4.6c-.106.369-.2.791-.287,1.263a6.68,6.68,0,0,0-.125,1.074,1.543,1.543,0,0,0,.41,1.249,2.3,2.3,0,0,0,1.419.333,4.117,4.117,0,0,0,1.074-.166A6.109,6.109,0,0,0,24.842,30Zm-.23-18.67a3.1,3.1,0,0,1-2.188.844,3.133,3.133,0,0,1-2.2-.844,2.7,2.7,0,0,1-.915-2.048,2.723,2.723,0,0,1,.915-2.053,3.111,3.111,0,0,1,2.2-.853,3.076,3.076,0,0,1,2.188.853,2.765,2.765,0,0,1,0,4.1Z"/></g></svg>