<svg xmlns="http://www.w3.org/2000/svg" width="43.053" height="41.142" viewBox="0 0 43.053 41.142"><defs><style>.a{fill:none;stroke-linecap:round;stroke-linejoin:round;}.b,.c{stroke:none;}.c{fill:#fff;}</style></defs><g class="a" transform="translate(2 0.682)"><path class="b" d="M19.527,1.318,25.56,13.544l13.493,1.961-9.763,9.516,2.3,13.438L19.527,32.115,7.459,38.46l2.3-13.438L0,15.505l13.493-1.961Z"/><path class="c" d="M 19.52668571472168 1.317996978759766 L 13.49265480041504 13.54410743713379 L -3.814697265625e-06 15.50518798828125 L 9.763345718383789 25.02131652832031 L 7.458625793457031 38.45959854125977 L 19.52668571472168 32.11527633666992 L 31.59402465820313 38.45959854125977 L 29.289306640625 25.02131652832031 L 39.05264663696289 15.50518798828125 L 25.55999565124512 13.54410743713379 L 19.52668571472168 1.317996978759766 M 19.52668190002441 -0.6820030212402344 C 19.52672958374023 -0.6820030212402344 19.52668952941895 -0.6820030212402344 19.52673530578613 -0.6820030212402344 C 20.28803443908691 -0.6819839477539063 20.98329544067383 -0.2497520446777344 21.3201961517334 0.4329376220703125 L 26.88820266723633 11.71614456176758 L 39.34031677246094 13.52598762512207 C 40.09368515014648 13.63547706604004 40.71955490112305 14.16318702697754 40.95478439331055 14.88722801208496 C 41.19000625610352 15.61125755310059 40.9937744140625 16.40604782104492 40.44861602783203 16.93741798400879 L 31.43826675415039 25.7196216583252 L 33.56524658203125 38.12152862548828 C 33.69392395019531 38.87185668945313 33.38547515869141 39.63017654418945 32.76958465576172 40.07763671875 C 32.42118835449219 40.33076095581055 32.00846862792969 40.4596061706543 31.59381675720215 40.4596061706543 C 31.27544593811035 40.4596061706543 30.95598602294922 40.38371658325195 30.66332626342773 40.2298469543457 L 19.52666664123535 34.37482833862305 L 8.389286041259766 40.22987747192383 C 8.096700668334961 40.38368988037109 7.77711296081543 40.4596061706543 7.458833694458008 40.4596061706543 C 7.044097900390625 40.4596061706543 6.631511688232422 40.33080291748047 6.283046722412109 40.07762908935547 C 5.667163848876953 39.63015747070313 5.358726501464844 38.87184906005859 5.487403869628906 38.12152862548828 L 7.614383697509766 25.71961402893066 L -1.395965576171875 16.93741798400879 C -1.941135406494141 16.40605735778809 -2.137363433837891 15.61125755310059 -1.902145385742188 14.88722801208496 C -1.666915893554688 14.16318702697754 -1.041046142578125 13.63547706604004 -0.2876739501953125 13.52598762512207 L 12.16450691223145 11.71613502502441 L 17.73321533203125 0.4328575134277344 C 18.07012557983398 -0.2497787475585938 18.76543617248535 -0.6820030212402344 19.52668190002441 -0.6820030212402344 Z"/></g></svg>